<svg width="20" height="21" viewBox="0 0 20 21" fill="none" xmlns="http://www.w3.org/2000/svg">
<path d="M5.5 1C5.5 0.447715 5.05228 0 4.5 0C3.94771 0 3.5 0.447715 3.5 1V2C3.5 2.55228 3.94771 3 4.5 3C5.05228 3 5.5 2.55228 5.5 2V1Z" fill="#DEE2E6"/>
<path d="M16.5 1C16.5 0.447715 16.0523 0 15.5 0C14.9477 0 14.5 0.447715 14.5 1V2C14.5 2.55228 14.9477 3 15.5 3C16.0523 3 16.5 2.55228 16.5 2V1Z" fill="#DEE2E6"/>
<path d="M0 7.5V19C0 20.1045 0.8955 21 2 21H18C19.1045 21 20 20.1045 20 19V7.5H0ZM6 17.5C6 18.0525 5.5525 18.5 5 18.5H4C3.4475 18.5 3 18.0525 3 17.5V16.5C3 15.9475 3.4475 15.5 4 15.5H5C5.5525 15.5 6 15.9475 6 16.5V17.5ZM6 12C6 12.5525 5.5525 13 5 13H4C3.4475 13 3 12.5525 3 12V11C3 10.4475 3.4475 10 4 10H5C5.5525 10 6 10.4475 6 11V12ZM11.5 17.5C11.5 18.0525 11.0525 18.5 10.5 18.5H9.5C8.9475 18.5 8.5 18.0525 8.5 17.5V16.5C8.5 15.9475 8.9475 15.5 9.5 15.5H10.5C11.0525 15.5 11.5 15.9475 11.5 16.5V17.5ZM11.5 12C11.5 12.5525 11.0525 13 10.5 13H9.5C8.9475 13 8.5 12.5525 8.5 12V11C8.5 10.4475 8.9475 10 9.5 10H10.5C11.0525 10 11.5 10.4475 11.5 11V12ZM17 17.5C17 18.0525 16.5525 18.5 16 18.5H15C14.4475 18.5 14 18.0525 14 17.5V16.5C14 15.9475 14.4475 15.5 15 15.5H16C16.5525 15.5 17 15.9475 17 16.5V17.5ZM17 12C17 12.5525 16.5525 13 16 13H15C14.4475 13 14 12.5525 14 12V11C14 10.4475 14.4475 10 15 10H16C16.5525 10 17 10.4475 17 11V12Z" fill="#DEE2E6"/>
<path d="M20 6.5V3.5C20 2.3955 19.1045 1.5 18 1.5H17.5V2C17.5 3.103 16.603 4 15.5 4C14.397 4 13.5 3.103 13.5 2V1.5H6.5V2C6.5 3.103 5.603 4 4.5 4C3.397 4 2.5 3.103 2.5 2V1.5H2C0.8955 1.5 0 2.3955 0 3.5V6.5H20Z" fill="#DEE2E6"/>
</svg>
