<svg width="20" height="20" viewBox="0 0 20 20" fill="none" xmlns="http://www.w3.org/2000/svg">
<path d="M10 4.45312C6.94145 4.45312 4.45312 6.94145 4.45312 10C4.45312 13.0586 6.94145 15.5469 10 15.5469C13.0586 15.5469 15.5469 13.0586 15.5469 10C15.5469 6.94145 13.0586 4.45312 10 4.45312ZM10 14.7656C7.37223 14.7656 5.23438 12.6278 5.23438 10C5.23438 7.37223 7.37223 5.23438 10 5.23438C12.6278 5.23438 14.7656 7.37223 14.7656 10C14.7656 12.6278 12.6278 14.7656 10 14.7656Z" fill="#7C68CB"/>
<path d="M19.7926 0.045625C19.665 -0.0221093 19.5104 -0.0139453 19.3907 0.0669141C17.473 1.36266 16.3281 3.51797 16.3281 5.83238V10.9008C16.3281 11.4445 16.5398 11.9555 16.9242 12.34L17.6562 13.072V18.8281C17.6562 19.4743 18.182 20 18.8281 20C19.4743 20 20 19.4743 20 18.8281V0.390625C20 0.246133 19.9202 0.113438 19.7926 0.045625ZM19.2188 18.8281C19.2188 19.0435 19.0435 19.2188 18.8281 19.2188C18.6127 19.2188 18.4375 19.0435 18.4375 18.8281V12.9102C18.4375 12.8066 18.3963 12.7072 18.3231 12.6339L17.4766 11.7875C17.2398 11.5507 17.1094 11.2358 17.1094 10.9008V5.83238C17.1094 4.03629 17.886 2.34824 19.2188 1.18348V18.8281Z" fill="#7C68CB"/>
<path d="M9.10383 6.90207C9.01914 6.70367 8.78953 6.61152 8.59117 6.69617C7.26566 7.26203 6.40918 8.55887 6.40918 10C6.40918 10.2157 6.58406 10.3906 6.7998 10.3906C7.01555 10.3906 7.19043 10.2157 7.19043 10C7.19043 8.8723 7.86066 7.8575 8.89793 7.41473C9.09633 7.33004 9.18852 7.10051 9.10383 6.90207Z" fill="#7C68CB"/>
<path d="M10 6.40918L9.98027 6.40922C9.76453 6.41066 9.59082 6.58672 9.59227 6.80246C9.59371 7.0173 9.76832 7.19047 9.98285 7.19047C9.98371 7.19047 9.98465 7.19047 9.98551 7.19047L10 7.19043C10.2157 7.19043 10.3906 7.01555 10.3906 6.7998C10.3906 6.58406 10.2157 6.40918 10 6.40918Z" fill="#7C68CB"/>
<path d="M15.415 4.86246C14.7248 4.13527 13.9113 3.56309 12.997 3.16184C12.0503 2.74637 11.042 2.5357 10 2.5357C8.80937 2.5357 7.67125 2.80781 6.61727 3.34453C6.42504 3.44242 6.34852 3.67762 6.44641 3.86988C6.54434 4.06207 6.77953 4.13855 6.9718 4.0407C7.91492 3.56047 8.93375 3.31695 10 3.31695C11.8514 3.31695 13.5732 4.0568 14.8483 5.40027C14.9251 5.48121 15.0283 5.52199 15.1317 5.52199C15.2282 5.52199 15.325 5.48641 15.4005 5.41469C15.557 5.26617 15.5634 5.01895 15.415 4.86246Z" fill="#7C68CB"/>
<path d="M15.7942 14.0773C15.6249 13.9436 15.3793 13.9723 15.2455 14.1415C13.9684 15.7567 12.0565 16.683 10 16.683C8.71289 16.683 7.4634 16.3165 6.3866 15.623C6.20527 15.5061 5.96348 15.5585 5.84668 15.7398C5.72988 15.9213 5.78223 16.163 5.96359 16.2798C7.1668 17.0547 8.56258 17.4643 10 17.4643C12.2969 17.4643 14.4321 16.4298 15.8583 14.626C15.9921 14.4568 15.9634 14.2111 15.7942 14.0773Z" fill="#7C68CB"/>
<path d="M5.31086 14.7627L5.30512 14.7561C5.30305 14.7535 5.30098 14.7509 5.29883 14.7484C5.15988 14.5834 4.91348 14.5623 4.74844 14.7012C4.5834 14.8402 4.56223 15.0865 4.70121 15.2516L4.705 15.2561L4.7052 15.2559C4.70934 15.2612 4.71363 15.2664 4.71809 15.2716C4.79535 15.3616 4.90465 15.4077 5.01465 15.4077C5.10473 15.4077 5.19523 15.3768 5.26891 15.3135C5.43258 15.173 5.45137 14.9264 5.31086 14.7627Z" fill="#7C68CB"/>
<path d="M4.84375 4.61401e-08C4.62801 4.61401e-08 4.45312 0.174883 4.45312 0.390625V4.60938H3.74969C3.74973 4.60719 3.75 4.60508 3.75 4.60285V0.390625C3.75 0.174883 3.57512 4.61401e-08 3.35938 4.61401e-08C3.14363 4.61401e-08 2.96875 0.174883 2.96875 0.390625V4.60285C2.96875 4.60504 2.96906 4.60719 2.96906 4.60938H2.26531C2.26535 4.60719 2.26562 4.60508 2.26562 4.60285V0.390625C2.26562 0.174883 2.09074 4.61401e-08 1.875 4.61401e-08C1.65926 4.61401e-08 1.48438 0.174883 1.48438 0.390625V4.60285C1.48438 4.60504 1.48469 4.60719 1.48469 4.60938H0.78125V0.390625C0.78125 0.174883 0.606367 4.61401e-08 0.390625 4.61401e-08C0.174883 4.61401e-08 0 0.174883 0 0.390625V5.15625C0 6.11445 0.581406 6.97926 1.44531 7.35309V18.8281C1.44531 19.4743 1.97102 20 2.61719 20C3.26336 20 3.78906 19.4743 3.78906 18.8281V7.35309C4.65297 6.97926 5.23438 6.11445 5.23438 5.15625V0.390625C5.23438 0.174883 5.05949 4.61401e-08 4.84375 4.61401e-08ZM3.29 6.70391C3.12289 6.75219 3.00781 6.9052 3.00781 7.07918V18.8281C3.00781 19.0435 2.83258 19.2188 2.61719 19.2188C2.4018 19.2188 2.22656 19.0435 2.22656 18.8281V7.07918C2.22656 6.9052 2.11152 6.75219 1.94438 6.70391C1.33566 6.52801 0.89043 6.00551 0.798906 5.39062H4.43543C4.34395 6.00551 3.89871 6.52801 3.29 6.70391Z" fill="#7C68CB"/>
</svg>
