<svg width="30" height="31" viewBox="0 0 30 31" fill="none" xmlns="http://www.w3.org/2000/svg">
<path d="M0 10.3333V11.625C0 12.3101 0.263392 12.9672 0.732233 13.4517C1.20107 13.9362 1.83696 14.2083 2.5 14.2083H6.25C6.91304 14.2083 7.54893 13.9362 8.01777 13.4517C8.48661 12.9672 8.75 12.3101 8.75 11.625C8.75 12.3101 9.01339 12.9672 9.48223 13.4517C9.95107 13.9362 10.587 14.2083 11.25 14.2083H18.75C19.413 14.2083 20.0489 13.9362 20.5178 13.4517C20.9866 12.9672 21.25 12.3101 21.25 11.625C21.25 12.3101 21.5134 12.9672 21.9822 13.4517C22.4511 13.9362 23.087 14.2083 23.75 14.2083H27.5C28.163 14.2083 28.7989 13.9362 29.2678 13.4517C29.7366 12.9672 30 12.3101 30 11.625V10.3333H0Z" fill="#7C68CB"/>
<path d="M29.6928 9.04167L27.4519 0.936458C27.3772 0.666638 27.2195 0.429294 27.0026 0.260332C26.7858 0.0913701 26.5216 -1.56503e-05 26.25 2.01032e-09H20.5247L22.2747 9.04167H29.6928Z" fill="#7C68CB"/>
<path d="M9.47531 2.01032e-09H3.75C3.47841 -1.56503e-05 3.21421 0.0913701 2.99736 0.260332C2.78051 0.429294 2.62281 0.666638 2.54813 0.936458L0.307187 9.04167H7.72531L9.47531 2.01032e-09Z" fill="#7C68CB"/>
<path d="M17.9753 2.01033e-09H12.0247L10.2747 9.04167H19.7253L17.9753 2.01033e-09Z" fill="#7C68CB"/>
<path d="M23.75 15.5C22.827 15.5008 21.9365 15.1484 21.25 14.5109C20.5635 15.1484 19.673 15.5008 18.75 15.5H11.25C10.327 15.5008 9.43646 15.1484 8.75 14.5109C8.06354 15.1484 7.17297 15.5008 6.25 15.5H2.5C2.07389 15.4991 1.65109 15.4226 1.25 15.274V29.7083C1.25 30.0509 1.3817 30.3794 1.61612 30.6217C1.85054 30.8639 2.16848 31 2.5 31H5V19.375C5 19.0324 5.1317 18.7039 5.36612 18.4617C5.60054 18.2194 5.91848 18.0833 6.25 18.0833H12.5C12.8315 18.0833 13.1495 18.2194 13.3839 18.4617C13.6183 18.7039 13.75 19.0324 13.75 19.375V31H27.5C27.8315 31 28.1495 30.8639 28.3839 30.6217C28.6183 30.3794 28.75 30.0509 28.75 29.7083V15.274C28.3489 15.4226 27.9261 15.4991 27.5 15.5H23.75ZM25 23.25C25 23.5926 24.8683 23.9211 24.6339 24.1633C24.3995 24.4056 24.0815 24.5417 23.75 24.5417H17.5C17.1685 24.5417 16.8505 24.4056 16.6161 24.1633C16.3817 23.9211 16.25 23.5926 16.25 23.25V19.375C16.25 19.0324 16.3817 18.7039 16.6161 18.4617C16.8505 18.2194 17.1685 18.0833 17.5 18.0833H23.75C24.0815 18.0833 24.3995 18.2194 24.6339 18.4617C24.8683 18.7039 25 19.0324 25 19.375V23.25Z" fill="#7C68CB"/>
</svg>
