<svg width="21" height="21" viewBox="0 0 21 21" fill="none" xmlns="http://www.w3.org/2000/svg">
<path d="M16.873 0H4.12696C3.03272 0.000967071 1.98357 0.436081 1.20983 1.20983C0.436081 1.98357 0.000967071 3.03272 0 4.12696V16.873C0.000967071 17.9673 0.436081 19.0164 1.20983 19.7902C1.98357 20.5639 3.03272 20.999 4.12696 21H16.873C17.9673 20.999 19.0164 20.5639 19.7902 19.7902C20.5639 19.0164 20.999 17.9673 21 16.873V4.12696C20.999 3.03272 20.5639 1.98357 19.7902 1.20983C19.0164 0.436081 17.9673 0.000967071 16.873 0ZM10.7045 17.0739C10.6788 17.1028 10.6473 17.1258 10.6121 17.1416C10.5768 17.1574 10.5386 17.1656 10.5 17.1656C10.4614 17.1656 10.4232 17.1574 10.3879 17.1416C10.3527 17.1258 10.3212 17.1028 10.2955 17.0739C10.1056 16.8621 5.60609 11.8148 5.60609 9.03913C5.60609 6.17948 7.79739 3.84939 10.5 3.84939C13.2026 3.84939 15.3939 6.16487 15.3939 9.03913C15.3939 11.8148 10.8944 16.8621 10.7045 17.0739Z" fill="#DEE2E6"/>
<path d="M10.5 10.6534C11.6477 10.6534 12.5781 9.723 12.5781 8.5753C12.5781 7.42761 11.6477 6.49722 10.5 6.49722C9.3523 6.49722 8.42191 7.42761 8.42191 8.5753C8.42191 9.723 9.3523 10.6534 10.5 10.6534Z" fill="#DEE2E6"/>
</svg>
