<svg width="8" height="11" viewBox="0 0 8 11" fill="none" xmlns="http://www.w3.org/2000/svg">
<path id="Vector" d="M4 0C2.93957 0.00145065 1.92297 0.436513 1.17313 1.20979C0.423286 1.98306 0.00140669 3.03142 0 4.125C0 7.0864 3.72667 10.7955 3.885 10.9519C3.9158 10.9827 3.95705 11 4 11C4.04295 11 4.0842 10.9827 4.115 10.9519C4.27333 10.7955 8 7.0864 8 4.125C7.99859 3.03142 7.57671 1.98306 6.82687 1.20979C6.07703 0.436513 5.06043 0.00145065 4 0ZM4 6.01562C3.6374 6.01562 3.28294 5.90474 2.98145 5.69699C2.67996 5.48925 2.44498 5.19397 2.30622 4.84851C2.16746 4.50304 2.13115 4.1229 2.20189 3.75615C2.27263 3.38941 2.44724 3.05253 2.70364 2.78812C2.96003 2.52371 3.2867 2.34365 3.64233 2.2707C3.99797 2.19775 4.36659 2.23519 4.70159 2.37829C5.03658 2.52138 5.32291 2.76371 5.52436 3.07462C5.72581 3.38553 5.83333 3.75107 5.83333 4.125C5.83304 4.62633 5.63979 5.10704 5.29604 5.46154C4.95229 5.81603 4.48614 6.01532 4 6.01562Z" fill="#7C68CB"/>
</svg>
