<svg width="32" height="30" viewBox="0 0 32 30" fill="none" xmlns="http://www.w3.org/2000/svg">
<path d="M17.3733 2.13081L2.72 0.0277079C2.04 -0.0730393 1.34667 0.103268 0.826667 0.518851C0.306667 0.947026 0 1.5641 0 2.20637V28.7407C0 29.4333 0.6 30 1.33333 30H5.66667V23.3885C5.66667 22.1669 6.70667 21.1846 8 21.1846H11.3333C12.6267 21.1846 13.6667 22.1669 13.6667 23.3885V30H19.3333V4.30946C19.3333 3.22643 18.5067 2.30711 17.3733 2.13081ZM7.33333 18.3511H5.33333C4.78133 18.3511 4.33333 17.928 4.33333 17.4066C4.33333 16.8852 4.78133 16.4621 5.33333 16.4621H7.33333C7.88533 16.4621 8.33333 16.8852 8.33333 17.4066C8.33333 17.928 7.88533 18.3511 7.33333 18.3511ZM7.33333 14.5731H5.33333C4.78133 14.5731 4.33333 14.1499 4.33333 13.6286C4.33333 13.1072 4.78133 12.6841 5.33333 12.6841H7.33333C7.88533 12.6841 8.33333 13.1072 8.33333 13.6286C8.33333 14.1499 7.88533 14.5731 7.33333 14.5731ZM7.33333 10.7951H5.33333C4.78133 10.7951 4.33333 10.3719 4.33333 9.85056C4.33333 9.32919 4.78133 8.90606 5.33333 8.90606H7.33333C7.88533 8.90606 8.33333 9.32919 8.33333 9.85056C8.33333 10.3719 7.88533 10.7951 7.33333 10.7951ZM7.33333 7.01705H5.33333C4.78133 7.01705 4.33333 6.59391 4.33333 6.07254C4.33333 5.55117 4.78133 5.12804 5.33333 5.12804H7.33333C7.88533 5.12804 8.33333 5.55117 8.33333 6.07254C8.33333 6.59391 7.88533 7.01705 7.33333 7.01705ZM14 18.3511H12C11.448 18.3511 11 17.928 11 17.4066C11 16.8852 11.448 16.4621 12 16.4621H14C14.552 16.4621 15 16.8852 15 17.4066C15 17.928 14.552 18.3511 14 18.3511ZM14 14.5731H12C11.448 14.5731 11 14.1499 11 13.6286C11 13.1072 11.448 12.6841 12 12.6841H14C14.552 12.6841 15 13.1072 15 13.6286C15 14.1499 14.552 14.5731 14 14.5731ZM14 10.7951H12C11.448 10.7951 11 10.3719 11 9.85056C11 9.32919 11.448 8.90606 12 8.90606H14C14.552 8.90606 15 9.32919 15 9.85056C15 10.3719 14.552 10.7951 14 10.7951ZM14 7.01705H12C11.448 7.01705 11 6.59391 11 6.07254C11 5.55117 11.448 5.12804 12 5.12804H14C14.552 5.12804 15 5.55117 15 6.07254C15 6.59391 14.552 7.01705 14 7.01705Z" fill="#7C68CB"/>
<path d="M30.16 13.4296L20.6667 11.5519V30H29.6667C30.9533 30 32 29.0114 32 27.7962V15.5831C32 14.5429 31.2493 13.6575 30.16 13.4296ZM27 26.222H25C24.448 26.222 24 25.7988 24 25.2775C24 24.7561 24.448 24.333 25 24.333H27C27.552 24.333 28 24.7561 28 25.2775C28 25.7988 27.552 26.222 27 26.222ZM27 22.444H25C24.448 22.444 24 22.0208 24 21.4995C24 20.9781 24.448 20.555 25 20.555H27C27.552 20.555 28 20.9781 28 21.4995C28 22.0208 27.552 22.444 27 22.444ZM27 18.6659H25C24.448 18.6659 24 18.2428 24 17.7214C24 17.2001 24.448 16.7769 25 16.7769H27C27.552 16.7769 28 17.2001 28 17.7214C28 18.2428 27.552 18.6659 27 18.6659Z" fill="#7C68CB"/>
</svg>
