<svg width="15" height="15" viewBox="0 0 15 15" fill="none" xmlns="http://www.w3.org/2000/svg">
<path d="M10.5303 8.28597C10.3834 8.27356 10.2378 8.32149 10.1253 8.41926C10.0128 8.51703 9.94258 8.65666 9.93012 8.80751C9.88091 9.40399 9.81999 9.92282 9.76668 10.1955V10.1988C9.60939 11.0324 8.84081 11.8564 8.05261 12.0376C7.98436 12.052 7.91582 12.0659 7.84757 12.0791C7.90615 11.3048 7.9498 10.3147 7.94394 9.55115C7.95273 8.38468 7.84406 6.58864 7.74769 5.87389C7.57459 4.55786 6.78697 3.09827 5.91558 2.47802L5.9103 2.4744C5.30444 2.05386 4.65512 1.70353 3.97421 1.42982C3.85275 1.38147 3.73276 1.33633 3.61423 1.2944C4.26061 1.19172 4.91384 1.1414 5.5679 1.14392C6.45833 1.14392 7.27114 1.22728 8.05261 1.39401C8.84081 1.57458 9.60939 2.39917 9.76668 3.23279V3.2361C9.8197 3.50695 9.88062 4.02578 9.92983 4.62045C9.94234 4.77158 10.0128 4.91142 10.1256 5.0092C10.2385 5.10698 10.3845 5.15469 10.5316 5.14184C10.6787 5.12899 10.8148 5.05663 10.91 4.94068C11.0051 4.82472 11.0516 4.67468 11.0391 4.52355C10.9857 3.87982 10.9201 3.32939 10.8586 3.0128C10.6158 1.73047 9.51127 0.554068 8.28927 0.275994L8.28224 0.274489C7.42345 0.0915136 6.53595 0.00183172 5.56585 2.60448e-05C4.59575 -0.00177963 3.71177 0.0903099 2.85297 0.27479L2.84565 0.276295C2.30026 0.400585 1.7786 0.703939 1.34627 1.11533C1.22943 1.20585 1.1273 1.31485 1.0437 1.43825C0.661754 1.89629 0.384374 2.44431 0.276585 3.0128C0.141556 3.70828 -0.0110467 5.51185 0.000669454 6.71564C-0.00577444 7.36147 0.0349392 8.18004 0.0952775 8.90743C0.127497 9.37389 0.16411 9.78017 0.199259 10.0408C0.372365 11.3568 1.15998 12.8164 2.03167 13.4367L2.03665 13.4403C2.64266 13.8608 3.29207 14.2111 3.97304 14.4849C4.66253 14.7599 5.29521 14.9267 5.90767 14.9947H5.91294C6.736 15.0702 7.48408 14.3362 7.71049 13.263C7.90205 13.2317 8.09195 13.1961 8.28019 13.1562L8.28722 13.1547C9.50951 12.8766 10.6138 11.7002 10.8566 10.4179C10.9181 10.1007 10.984 9.54905 11.0373 8.90382C11.0497 8.75283 11.0033 8.60295 10.9082 8.4871C10.8132 8.37125 10.6772 8.29891 10.5303 8.28597Z" fill="#8269CC"/>
<path d="M15 6.71474C15 6.69578 15 6.67682 14.9971 6.65786C14.9972 6.65666 14.9972 6.65544 14.9971 6.65424C14.9953 6.63646 14.9927 6.61878 14.9892 6.60128V6.59737C14.9672 6.48869 14.9148 6.389 14.8383 6.31056L12.8466 4.26233C12.7422 4.15505 12.6006 4.09477 12.453 4.09474C12.3054 4.09472 12.1638 4.15494 12.0594 4.26218C11.955 4.36941 11.8963 4.51486 11.8963 4.66654C11.8963 4.81822 11.9549 4.9637 12.0592 5.07097L13.104 6.14414H9.26201C9.11441 6.14414 8.97286 6.20438 8.86849 6.31162C8.76412 6.41885 8.70549 6.56429 8.70549 6.71594C8.70549 6.86759 8.76412 7.01303 8.86849 7.12026C8.97286 7.22749 9.11441 7.28774 9.26201 7.28774H13.0991L12.0551 8.36031C11.9511 8.46762 11.8928 8.61294 11.893 8.76438C11.8931 8.91583 11.9517 9.06103 12.056 9.16811C12.1602 9.2752 12.3015 9.33543 12.4489 9.33559C12.5963 9.33575 12.7377 9.27582 12.8422 9.16895L14.8248 7.13185C14.8967 7.06265 14.9493 6.97495 14.9772 6.87785C14.9822 6.86054 14.9863 6.84295 14.9895 6.82518C14.9896 6.82268 14.9896 6.82016 14.9895 6.81766C14.9921 6.80231 14.9947 6.78756 14.9962 6.77131C14.9977 6.75506 14.9962 6.74784 14.9962 6.7364C14.9962 6.72978 14.9962 6.72316 14.9962 6.71654L15 6.71474Z" fill="#8269CC"/>
</svg>
