<svg width="17" height="17" viewBox="0 0 17 17" fill="none" xmlns="http://www.w3.org/2000/svg">
<g id="Vector">
<path d="M11.9343 9.39077C11.7679 9.3767 11.6028 9.43103 11.4753 9.54183C11.3478 9.65264 11.2683 9.81088 11.2541 9.98185C11.1984 10.6579 11.1293 11.2459 11.0689 11.5549V11.5586C10.8906 12.5034 10.0196 13.4373 9.12629 13.6426C9.04894 13.6589 8.97126 13.6746 8.89392 13.6896C8.96031 12.8121 9.00977 11.6899 9.00313 10.8246C9.01309 9.50264 8.88993 7.46712 8.78072 6.65708C8.58453 5.16557 7.6919 3.51137 6.70432 2.80842L6.69834 2.80433C6.0117 2.32771 5.2758 1.93067 4.5041 1.62046C4.36645 1.56566 4.23046 1.5145 4.09613 1.46698C4.82869 1.35061 5.56902 1.29359 6.31029 1.29645C7.31944 1.29645 8.24062 1.39092 9.12629 1.57988C10.0196 1.78452 10.8906 2.71906 11.0689 3.66383V3.66758C11.129 3.97454 11.198 4.56255 11.2538 5.23651C11.268 5.40779 11.3478 5.56628 11.4757 5.67709C11.6036 5.78791 11.7691 5.84198 11.9358 5.82742C12.1025 5.81286 12.2568 5.73085 12.3646 5.59943C12.4725 5.46802 12.5251 5.29797 12.5109 5.12669C12.4505 4.39713 12.3762 3.77331 12.3064 3.4145C12.0313 1.96119 10.7794 0.627943 9.39451 0.312793L9.38654 0.311087C8.41324 0.103715 7.40741 0.00207595 6.30796 2.95174e-05C5.20852 -0.00201692 4.20667 0.102351 3.23337 0.311428L3.22507 0.313134C2.60696 0.453997 2.01574 0.797797 1.52577 1.26404C1.39335 1.36664 1.27761 1.49016 1.18286 1.63001C0.749988 2.14913 0.435624 2.77022 0.313463 3.4145C0.160431 4.20272 -0.0125196 6.24677 0.000758714 7.61106C-0.00654436 8.343 0.0395978 9.27071 0.107981 10.0951C0.144497 10.6237 0.185991 11.0842 0.225826 11.3796C0.422014 12.8711 1.31465 14.5253 2.30256 15.2282L2.3082 15.2323C2.99501 15.7088 3.73101 16.1059 4.50277 16.4162C5.2842 16.7279 6.00123 16.9169 6.69536 16.994H6.70133C7.63414 17.0796 8.48196 16.2477 8.73856 15.0314C8.95566 14.996 9.17088 14.9556 9.38422 14.9103L9.39219 14.9086C10.7774 14.5935 12.0289 13.2602 12.3041 11.8069C12.3738 11.4474 12.4485 10.8223 12.5089 10.091C12.523 9.91987 12.4704 9.75 12.3627 9.61871C12.2549 9.48742 12.1009 9.40544 11.9343 9.39077Z" fill="white"/>
<path d="M17 7.61003C17 7.58855 17 7.56706 16.9967 7.54557C16.9968 7.54421 16.9968 7.54284 16.9967 7.54148C16.9947 7.52132 16.9917 7.50129 16.9877 7.48145V7.47702C16.9628 7.35385 16.9034 7.24086 16.8168 7.15197L14.5594 4.83064C14.4412 4.70906 14.2807 4.64074 14.1134 4.64071C13.9461 4.64068 13.7856 4.70893 13.6673 4.83047C13.549 4.952 13.4825 5.11684 13.4825 5.28875C13.4824 5.46065 13.5489 5.62552 13.6671 5.7471L14.8512 6.96336H10.4969C10.3297 6.96336 10.1692 7.03164 10.051 7.15317C9.93267 7.2747 9.86622 7.43953 9.86622 7.6114C9.86622 7.78327 9.93267 7.9481 10.051 8.06963C10.1692 8.19116 10.3297 8.25943 10.4969 8.25943H14.8456L13.6625 9.47502C13.5446 9.59663 13.4785 9.76133 13.4787 9.93297C13.4789 10.1046 13.5453 10.2692 13.6634 10.3905C13.7815 10.5119 13.9417 10.5802 14.1088 10.5803C14.2758 10.5805 14.4361 10.5126 14.5545 10.3915L16.8015 8.08276C16.883 8.00434 16.9426 7.90495 16.9741 7.79489C16.9798 7.77527 16.9845 7.75535 16.9881 7.73521C16.9882 7.73237 16.9882 7.72952 16.9881 7.72668C16.991 7.70929 16.994 7.69257 16.9957 7.67415C16.9973 7.65574 16.9957 7.64755 16.9957 7.63459C16.9957 7.62709 16.9957 7.61958 16.9957 7.61208L17 7.61003Z" fill="white"/>
</g>
</svg>
